mdat.24.ch0: 	; 0x0
	hummerSpeed 1
	hummerAlterNote 0
	hummerDuty 66
	hummerModulate 67
	hummerADSR 65
	hummerNoteLength 6
	db nE1
	db nE1
	db nE1
	db nRst
	hummerAlterNote 12
	hummerDuty 9
	hummerModulate 10
	hummerADSR 8
	hummerNoteLength 48
	db nE3
-
	hummerAlterNote 12
	hummerDuty 18
	hummerModulate 0
	hummerADSR 17
	hummerNoteLength 12
	db nA2
	db nB2
	db nC3
	db nE3
	hummerNoteLength 24
	db nB3
	hummerNoteLength 12
	db nB3
	db nA3
	hummerNoteLength 24
	db nB3
	hummerNoteLength 12
	db nB3
	db nA3
	hummerNoteLength 24
	db nB3
	hummerNoteLength 12
	db nB3
	db nA3
	db nB3
	db nA3
	db nE3
	db nC3
	hummerNoteLength 24
	db nG3
	hummerNoteLength 12
	db nA3
	hummerNoteLength 48
	db nF3
	hummerNoteLength 12
	db nRst
	hummerAlterNote 12
	hummerDuty 56
	hummerModulate 57
	hummerADSR 64
	hummerNoteLength 6
	db nF4
	db nD4
	db nB3
	db nA3
	db nD4
	db nC4
	db nA3
	db nG3
	db nB3
	db nG3
	db nE3
	db nD3
	db nG3
	db nE3
	db nC3
	db nBb2
	hummerDuty 18
	hummerModulate 0
	hummerADSR 17
	hummerNoteLength 24
	db nA3
	hummerNoteLength 12
	db nA3
	db nG3
	hummerNoteLength 24
	db nA3
	hummerNoteLength 12
	db nA3
	db nG3
	hummerNoteLength 24
	db nA3
	hummerNoteLength 12
	db nA3
	db nG3
	hummerNoteLength 24
	db nA3
	db nB3
	hummerNoteLength 48
	db nF3
	hummerNoteLength 96
	db nE3
	hummerNoteLength 12
	db nA2
	db nB2
	db nC3
	db nE3
	hummerNoteLength 24
	db nB3
	hummerNoteLength 12
	db nB3
	db nA3
	hummerNoteLength 24
	db nB3
	hummerNoteLength 12
	db nB3
	db nA3
	hummerNoteLength 24
	db nB3
	hummerNoteLength 12
	db nB3
	db nA3
	db nB3
	db nA3
	db nE3
	db nC3
	hummerNoteLength 24
	db nG3
	hummerNoteLength 12
	db nA3
	hummerNoteLength 48
	db nF3
	hummerNoteLength 12
	db nRst
	hummerAlterNote 12
	hummerDuty 56
	hummerModulate 57
	hummerADSR 64
	hummerNoteLength 6
	db nF4
	db nD4
	db nB3
	db nA3
	db nD4
	db nC4
	db nA3
	db nG3
	db nB3
	db nG3
	db nE3
	db nD3
	db nG3
	db nE3
	db nC3
	db nBb2
	hummerDuty 18
	hummerModulate 0
	hummerADSR 17
	hummerNoteLength 72
	db nA3
	hummerNoteLength 24
	db nB3
	hummerNoteLength 72
	db nAb3
	hummerNoteLength 24
	db nB3
	hummerNoteLength 48
	db nB3
	hummerNoteLength 96
	db nA3
	hummerNoteLength 24
	db nRst
	db nRst
	hummerAlterNote 0
	hummerDuty 56
	hummerModulate 57
	hummerADSR 64
	db nA3
	hummerNoteLength 12
	db nC4
	db nA3
	hummerNoteLength 24
	db nB3
	hummerNoteLength 12
	db nD4
	db nB3
	hummerNoteLength 24
	db nA3
	hummerNoteLength 12
	db nC4
	db nA3
	hummerNoteLength 24
	db nB3
	hummerNoteLength 12
	db nG3
	db nE3
	hummerNoteLength 24
	db nA3
	hummerNoteLength 12
	db nC4
	db nA3
	hummerNoteLength 24
	db nB3
	hummerNoteLength 12
	db nD4
	db nB3
	hummerNoteLength 24
	db nA3
	hummerNoteLength 12
	db nC4
	db nA3
	hummerJump -
	hummerStop

mdat.24.ch1: 	; 0xf2
	hummerAlterNote 0
	hummerDuty 4
	hummerModulate 5
	hummerADSR 2
	hummerNoteLength 24
	db nRst
	db nRst
	db nRst
	db nRst
	db nRst
-
	hummerDuty 23
	hummerModulate 22
	hummerADSR 21
	hummerNoteLength 12
	db nB2
	db nB2
	db nB2
	db nA2
	hummerNoteLength 36
	db nB2
	hummerNoteLength 24
	db nB2
	hummerNoteLength 12
	db nB2
	db nB2
	db nA3
	hummerNoteLength 48
	db nB2
	hummerNoteLength 12
	db nF2
	db nF2
	db nF2
	db nE2
	hummerNoteLength 48
	db nF2
	hummerNoteLength 12
	db nF2
	db nF2
	db nF2
	db nE2
	hummerNoteLength 48
	db nF2
	hummerAlterNote 0
	hummerDuty 23
	hummerModulate 22
	hummerADSR 21
	hummerNoteLength 12
	db nF2
	db nF2
	db nF2
	db nE2
	hummerNoteLength 36
	db nF2
	hummerNoteLength 24
	db nF2
	hummerNoteLength 12
	db nF2
	db nF2
	db nE2
	hummerNoteLength 48
	db nF2
	hummerNoteLength 12
	db nE2
	db nE2
	db nE2
	db nD2
	hummerAlterNote 12
	hummerDuty 56
	hummerModulate 57
	hummerADSR 64
	db nF4
	db nF4
	hummerNoteLength 24
	db nD4
	hummerNoteLength 12
	db nB3
	db nG3
	db nE3
	db nD3
	hummerNoteLength 24
	db nRst
	db nRst
	hummerAlterNote 0
	hummerDuty 23
	hummerModulate 22
	hummerADSR 21
	hummerNoteLength 12
	db nB2
	db nB2
	db nB2
	db nA2
	hummerNoteLength 36
	db nB2
	hummerNoteLength 24
	db nB2
	hummerNoteLength 12
	db nB2
	db nB2
	db nA3
	hummerNoteLength 48
	db nB2
	hummerNoteLength 12
	db nF2
	db nF2
	db nF2
	db nE2
	hummerNoteLength 48
	db nF2
	hummerNoteLength 12
	db nF2
	db nF2
	db nF2
	db nE2
	hummerNoteLength 48
	db nF2
	hummerNoteLength 12
	db nF2
	db nF2
	db nF2
	db nE2
	hummerNoteLength 36
	db nF2
	hummerNoteLength 24
	db nF2
	hummerNoteLength 12
	db nF2
	db nF2
	db nE2
	hummerNoteLength 48
	db nF2
	hummerNoteLength 12
	db nE2
	db nE2
	db nE2
	db nD2
	hummerNoteLength 48
	db nE2
	hummerDuty 23
	hummerModulate 22
	hummerADSR 20
	hummerNoteLength 12
	db nE2
	db nE2
	hummerNoteLength 24
	db nD2
	hummerNoteLength 12
	db nC2
	hummerNoteLength 36
	db nB1
	hummerDuty 56
	hummerModulate 57
	hummerADSR 64
	hummerNoteLength 12
	db nA3
	hummerNoteLength 6
	db nC4
	db nA3
	hummerNoteLength 12
	db nC4
	db nA3
	db nB3
	db nG3
	db nD3
	db nC4
	db nA3
	hummerNoteLength 6
	db nC4
	db nA3
	hummerNoteLength 12
	db nC4
	db nA3
	db nB3
	db nC4
	db nD4
	db nB3
	db nA3
	hummerNoteLength 6
	db nC4
	db nA3
	hummerNoteLength 12
	db nC4
	db nA3
	db nB3
	db nG3
	db nD3
	db nC4
	db nA3
	hummerNoteLength 6
	db nC4
	db nA3
	hummerNoteLength 12
	db nC4
	db nA3
	db nB3
	db nC4
	db nD4
	db nB3
	hummerJump -
	hummerStop

mdat.24.ch2: 	; 0x1d4
	hummerAlterNote 0
	hummerDuty 56
	hummerModulate 57
	hummerADSR 64
	hummerNoteLength 24
	db nRst
	db nRst
	db nRst
	db nRst
	db nRst
-
	hummerNoteLength 6
	db nA2
	db nRst
	db nA2
	db nRst
	db nA3
	db nRst
	db nA3
	db nRst
	db nG3
	db nRst
	db nG3
	db nRst
	db nA3
	db nRst
	db nA3
	db nRst
	hummerJump -
	hummerStop

mdat.24.ch3: 	; 0x1f7
	hummerStop

mptr.mz: 	; 0x1f8
	musicChannel 0, mdat.24.ch1
	musicChannel 1, mdat.24.ch0
	musicChannel 2, mdat.24.ch2
	musicChannel 3, mdat.24.ch3
	musicChannel 4, mdat.24.ch3
	hummerStop
