mdat.25.bin.ch0: 	; 0x0
	hummerSpeed 1
	hummerAlterNote 5
	hummerDuty 52
	hummerModulate 57
	hummerADSR 70
	hummerNoteLength 8
	db nC1
	db nRst
	db nC1
	db nRst
	db nC1
	db nRst
	db nC1
	db nRst
	db nC1
	db nRst
	db nC1
	db nRst
	db nC1
	db nC1
	db nC1
	db nRst
-
	hummerAlterNote 5
	hummerDuty 66
	hummerModulate 67
	hummerADSR 65
	hummerNoteLength 16
	db nE1
	hummerNoteLength 32
	db nE1
	hummerNoteLength 16
	db nC1
	db nE1
	db nD1
	hummerNoteLength 8
	db nE1
	hummerNoteLength 24
	db nG1
	hummerNoteLength 16
	db nRst
	hummerNoteLength 8
	db nE1
	db nG1
	db nB1
	hummerNoteLength 24
	db nG1
	hummerNoteLength 16
	db nE1
	db nE1
	hummerNoteLength 32
	db nC1
	hummerNoteLength 16
	db nE1
	hummerNoteLength 32
	db nE1
	hummerNoteLength 16
	db nC1
	db nE1
	db nD1
	hummerNoteLength 8
	db nE1
	hummerNoteLength 24
	db nG1
	hummerNoteLength 16
	db nRst
	db nRst
	db nRst
	db nRst
	db nRst
	db nRst
	db nRst
	db nRst
	db nE1
	hummerNoteLength 32
	db nE1
	hummerNoteLength 16
	db nC1
	db nE1
	db nD1
	hummerNoteLength 8
	db nE1
	hummerNoteLength 24
	db nG1
	hummerNoteLength 16
	db nRst
	hummerNoteLength 8
	db nE1
	db nG1
	db nB1
	hummerNoteLength 24
	db nG1
	hummerNoteLength 16
	db nE1
	db nE1
	hummerNoteLength 32
	db nC1
	hummerNoteLength 16
	db nE1
	hummerNoteLength 32
	db nE1
	hummerNoteLength 16
	db nC1
	db nE1
	db nD1
	hummerNoteLength 8
	db nE1
	hummerNoteLength 24
	db nG1
	hummerDuty 52
	hummerModulate 57
	hummerADSR 70
	hummerNoteLength 8
	db nC1
	db nRst
	db nC1
	db nRst
	db nC1
	db nRst
	db nC1
	db nRst
	db nC1
	db nRst
	hummerNoteLength 16
	db nRst
	db nRst
	db nRst
	hummerAlterNote 5
	hummerDuty 18
	hummerModulate 0
	hummerADSR 17
	db nC4
	hummerNoteLength 32
	db nC4
	hummerNoteLength 16
	db nC4
	db nB3
	db nRst
	db nRst
	db nRst
	db nA3
	hummerNoteLength 32
	db nA3
	hummerNoteLength 16
	db nA3
	db nG3
	db nRst
	db nRst
	db nRst
	db nRst
	db nRst
	db nRst
	db nRst
	db nRst
	db nRst
	db nRst
	db nRst
	db nRst
	db nRst
	db nRst
	db nRst
	db nRst
	db nRst
	db nRst
	db nRst
	db nC4
	hummerNoteLength 32
	db nC4
	hummerNoteLength 16
	db nC4
	db nB3
	db nRst
	db nRst
	db nRst
	db nA3
	hummerNoteLength 32
	db nA3
	hummerNoteLength 16
	db nA3
	db nG3
	db nRst
	db nRst
	db nRst
	hummerAlterNote 17
	hummerDuty 7
	hummerModulate 5
	hummerADSR 3
	db nRst
	db nE3
	db nA3
	db nB3
	hummerNoteLength 64
	db nC4
	hummerNoteLength 16
	db nRst
	db nRst
	db nRst
	db nRst
	db nRst
	db nRst
	db nRst
	db nRst
	hummerJump -
	hummerStop

mdat.25.bin.ch1: 	; 0xe1
	hummerAlterNote 5
	hummerDuty 23
	hummerModulate 22
	hummerADSR 20
	hummerNoteLength 8
	db nE3
	db nRst
	db nE3
	db nRst
	db nFs3
	db nRst
	db nFs3
	db nRst
	db nG3
	db nRst
	db nG3
	db nRst
	db nA3
	db nRst
	db nA3
	db nRst
-
	hummerAlterNote 17
	hummerDuty 18
	hummerModulate 0
	hummerADSR 17
	hummerNoteLength 64
	db nB2
	hummerNoteLength 16
	db nRst
	db nRst
	db nC3
	db nD3
	hummerNoteLength 48
	db nB2
	hummerNoteLength 16
	db nRst
	db nRst
	db nRst
	db nRst
	db nRst
	hummerNoteLength 64
	db nCs3
	hummerNoteLength 16
	db nRst
	db nRst
	db nRst
	db nRst
	hummerAlterNote 5
	hummerDuty 66
	hummerModulate 67
	hummerADSR 65
	db nF1
	db nF1
	db nE1
	db nE1
	db nD1
	db nD1
	db nC1
	db nC1
	hummerAlterNote 17
	hummerDuty 18
	hummerModulate 0
	hummerADSR 17
	hummerNoteLength 64
	db nB2
	hummerNoteLength 16
	db nRst
	db nRst
	db nC3
	db nD3
	hummerNoteLength 48
	db nB2
	hummerNoteLength 16
	db nRst
	db nRst
	db nRst
	db nRst
	db nRst
	hummerNoteLength 64
	db nCs3
	hummerNoteLength 16
	db nRst
	db nRst
	db nRst
	db nRst
	hummerAlterNote 5
	hummerDuty 66
	hummerModulate 67
	hummerADSR 65
	db nF1
	db nF1
	hummerNoteLength 8
	db nF1
	db nF1
	hummerNoteLength 16
	db nF1
	db nE1
	db nRst
	db nRst
	db nRst
	hummerAlterNote 17
	hummerDuty 56
	hummerModulate 57
	hummerADSR 65
	db nRst
	db nC4
	db nB3
	db nA3
	db nG3
	db nA3
	hummerNoteLength 8
	db nG3
	hummerNoteLength 24
	db nE3
	hummerNoteLength 16
	db nF3
	db nF3
	db nG3
	db nF3
	hummerNoteLength 8
	db nE3
	hummerNoteLength 24
	db nF3
	hummerNoteLength 32
	db nG3
	hummerNoteLength 16
	db nRst
	db nC4
	db nB3
	db nA3
	db nG3
	db nA3
	hummerNoteLength 8
	db nG3
	hummerNoteLength 24
	db nE3
	hummerNoteLength 32
	db nG3
	db nD4
	hummerNoteLength 16
	db nE4
	hummerNoteLength 8
	db nE4
	db nD4
	hummerNoteLength 32
	db nC4
	hummerNoteLength 16
	db nRst
	db nC4
	db nB3
	db nA3
	db nG3
	db nA3
	hummerNoteLength 8
	db nG3
	hummerNoteLength 24
	db nE3
	hummerNoteLength 16
	db nF3
	db nF3
	db nG3
	db nF3
	hummerNoteLength 8
	db nE3
	hummerNoteLength 24
	db nF3
	hummerNoteLength 32
	db nG3
	hummerNoteLength 16
	db nRst
	db nE4
	db nD4
	db nD4
	db nC4
	db nC4
	hummerNoteLength 8
	db nB3
	db nC4
	db nB3
	hummerNoteLength 16
	db nA3
	hummerNoteLength 8
	db nRst
	hummerNoteLength 16
	db nRst
	db nRst
	db nRst
	db nRst
	db nRst
	db nRst
	db nRst
	hummerJump -
	hummerStop

mdat.25.bin.ch2: 	; 0x1bc
	hummerAlterNote 5
	hummerDuty 0
	hummerModulate 0
	hummerADSR 51
	hummerNoteLength 16
	db nE3
	db nE3
	db nD3
	db nD3
	db nC3
	db nC3
	db nB2
	db nB2
-
	hummerAlterNote 17
	hummerDuty 23
	hummerModulate 22
	hummerADSR 20
	hummerNoteLength 8
	db nB3
	db nRst
	hummerNoteLength 16
	db nB3
	db nG3
	db nE3
	hummerNoteLength 32
	db nB3
	db nG3
	hummerNoteLength 16
	db nRst
	hummerNoteLength 8
	db nE3
	db nG3
	db nA3
	db nB3
	hummerNoteLength 16
	db nRst
	hummerNoteLength 8
	db nE3
	db nG3
	db nA3
	db nB3
	hummerNoteLength 16
	db nRst
	db nRst
	hummerNoteLength 8
	db nCs4
	db nRst
	hummerNoteLength 16
	db nCs4
	db nA3
	db nFs3
	hummerNoteLength 32
	db nCs4
	db nA3
	hummerNoteLength 64
	db nC4
	hummerNoteLength 16
	db nRst
	db nRst
	db nRst
	db nRst
	hummerNoteLength 8
	db nB3
	db nRst
	hummerNoteLength 16
	db nB3
	db nG3
	db nE3
	hummerNoteLength 32
	db nB3
	db nG3
	hummerNoteLength 16
	db nRst
	hummerNoteLength 8
	db nE3
	db nG3
	db nA3
	db nB3
	hummerNoteLength 16
	db nRst
	hummerNoteLength 8
	db nE3
	db nG3
	db nA3
	db nB3
	hummerNoteLength 16
	db nRst
	db nRst
	hummerNoteLength 8
	db nCs4
	db nRst
	hummerNoteLength 16
	db nCs4
	db nA3
	db nFs3
	hummerNoteLength 32
	db nCs4
	db nA3
	hummerNoteLength 16
	db nC4
	db nC4
	hummerNoteLength 8
	db nD4
	db nC4
	hummerNoteLength 16
	db nD4
	db nE4
	db nRst
	db nRst
	db nRst
	hummerAlterNote 29
	hummerDuty 56
	hummerModulate 57
	hummerADSR 64
	db nC2
	hummerNoteLength 32
	db nC2
	hummerNoteLength 16
	db nC2
	hummerNoteLength 32
	db nB1
	hummerNoteLength 8
	db nC2
	hummerNoteLength 24
	db nB1
	hummerNoteLength 16
	db nF1
	hummerNoteLength 32
	db nF1
	hummerNoteLength 16
	db nE1
	db nC1
	db nC1
	hummerNoteLength 8
	db nD1
	hummerNoteLength 24
	db nE1
	hummerNoteLength 16
	db nC2
	hummerNoteLength 32
	db nC2
	hummerNoteLength 16
	db nC2
	hummerNoteLength 32
	db nB1
	hummerNoteLength 8
	db nC2
	hummerNoteLength 24
	db nB1
	hummerNoteLength 16
	db nF1
	hummerNoteLength 32
	db nF1
	hummerNoteLength 16
	db nE1
	db nC1
	db nC1
	hummerNoteLength 8
	db nD1
	hummerNoteLength 24
	db nE1
	hummerNoteLength 16
	db nC2
	hummerNoteLength 32
	db nC2
	hummerNoteLength 16
	db nC2
	hummerNoteLength 32
	db nB1
	hummerNoteLength 8
	db nC2
	hummerNoteLength 24
	db nB1
	hummerNoteLength 16
	db nF1
	hummerNoteLength 32
	db nF1
	hummerNoteLength 16
	db nE1
	db nC1
	db nC1
	hummerNoteLength 8
	db nD1
	hummerNoteLength 24
	db nE1
	hummerNoteLength 16
	db nC2
	hummerNoteLength 32
	db nC2
	hummerNoteLength 16
	db nC2
	hummerNoteLength 32
	db nB1
	hummerNoteLength 8
	db nC2
	hummerNoteLength 24
	db nB1
	hummerNoteLength 16
	db nRst
	db nRst
	db nRst
	db nRst
	db nRst
	db nRst
	db nRst
	db nRst
	hummerJump -
	hummerStop

mdat.25.bin.ch3: 	; 0x29a
	hummerAlterNote 5
	hummerDuty 0
	hummerModulate 0
	hummerADSR 83
	hummerNoteLength 16
	db nC3
	db nC3
	db nC3
	db nC3
	db nC3
	db nC3
	hummerNoteLength 8
	db nC3
	db nF3
	hummerNoteLength 16
	db nC3
-
	hummerNoteLength 16
	db nC3
	db nC3
	db nF3
	db nC3
	db nC3
	db nC3
	db nF3
	db nC3
	db nC3
	db nC3
	db nF3
	db nC3
	db nC3
	db nC3
	db nF3
	db nC3
	db nC3
	db nC3
	db nF3
	db nC3
	db nC3
	db nC3
	db nF3
	db nC3
	db nC3
	db nC3
	db nF3
	db nC3
	db nC3
	db nC3
	db nF3
	db nC3
	db nC3
	db nC3
	db nF3
	db nC3
	db nC3
	db nC3
	db nF3
	db nC3
	db nC3
	db nC3
	db nF3
	db nC3
	db nC3
	db nC3
	db nF3
	db nC3
	db nC3
	db nC3
	db nF3
	db nC3
	db nC3
	db nC3
	db nF3
	db nC3
	db nC3
	db nC3
	db nC3
	db nC3
	db nC3
	db nRst
	hummerNoteLength 8
	db nF3
	db nF3
	db nF3
	db nF3
	hummerNoteLength 16
	db nC3
	db nC3
	db nF3
	db nC3
	db nC3
	db nC3
	db nF3
	db nC3
	db nC3
	db nC3
	db nF3
	db nC3
	db nC3
	db nF3
	db nF3
	db nF3
	db nC3
	db nC3
	db nF3
	db nC3
	db nC3
	db nC3
	db nF3
	db nC3
	db nC3
	db nC3
	db nF3
	db nC3
	db nC3
	db nF3
	db nF3
	db nF3
	db nC3
	db nC3
	db nF3
	db nC3
	db nC3
	db nC3
	db nF3
	db nC3
	db nC3
	db nC3
	db nF3
	db nC3
	db nC3
	db nF3
	db nF3
	db nF3
	db nC3
	db nC3
	db nF3
	db nC3
	db nC3
	db nC3
	db nF3
	db nC3
	db nC3
	db nC3
	db nF3
	db nC3
	hummerNoteLength 8
	db nG3
	db nE3
	db nE3
	hummerNoteLength 4
	db nF3
	db nF3
	db nD3
	db nD3
	hummerNoteLength 8
	db nC3
	hummerNoteLength 4
	db nF3
	db nF3
	db nF3
	db nF3
	hummerJump -
	hummerStop

mdat.25.bin.ch4: 	; 0x343
	hummerStop

mptr.syz: 	; 0x344
	musicChannel 0, $8f12
	musicChannel 1, $8ff3
	musicChannel 2, $90ce
	musicChannel 3, $91ac
	musicChannel 4, $9255
	hummerStop
