mdat.26.bin.ch0: 	; 0x0
	hummerSpeed 1
	hummerAlterNote 0
	hummerDuty 18
	hummerModulate 0
	hummerADSR 17
	hummerNoteLength 14
	db nC4
	db nA3
	db nF3
	hummerNoteLength 28
	db nG3
	hummerNoteLength 14
	db nG3
	db nG3
-
	hummerAlterNote 12
	hummerDuty 0
	hummerModulate 0
	hummerADSR 83
	hummerNoteLength 14
	db nRst
	db nE3
	db nG3
	db nE3
	hummerNoteLength 28
	db nG3
	hummerNoteLength 14
	db nA3
	db nB3
	db nRst
	db nC4
	db nB3
	db nA3
	hummerNoteLength 28
	db nG3
	hummerNoteLength 14
	db nA3
	db nE3
	db nRst
	db nE3
	db nG3
	db nE3
	hummerNoteLength 28
	db nG3
	hummerNoteLength 14
	db nA3
	db nB3
	db nRst
	db nC4
	db nB3
	db nA3
	hummerNoteLength 28
	db nG3
	hummerNoteLength 14
	db nA3
	db nE3
	db nRst
	db nA3
	db nC4
	db nA3
	hummerNoteLength 28
	db nC4
	hummerNoteLength 14
	db nD4
	db nE4
	db nRst
	db nF4
	db nE4
	db nD4
	hummerNoteLength 28
	db nC4
	hummerNoteLength 14
	db nD4
	db nA3
	db nRst
	db nA3
	db nC4
	db nA3
	hummerNoteLength 28
	db nC4
	hummerNoteLength 14
	db nD4
	db nE4
	db nRst
	db nF4
	db nE4
	db nD4
	hummerNoteLength 28
	db nC4
	db nA3
	hummerNoteLength 7
	db nD4
	db nC4
	db nD4
	db nC4
	hummerNoteLength 14
	db nRst
	db nRst
	db nRst
	db nRst
	db nRst
	db nRst
	hummerDuty 18
	hummerModulate 0
	hummerADSR 17
	db nRst
	db nRst
	db nRst
	db nRst
	db nRst
	db nRst
	db nRst
	db nRst
	hummerDuty 0
	hummerModulate 0
	hummerADSR 83
	db nRst
	hummerNoteLength 28
	db nC4
	hummerNoteLength 14
	db nC4
	hummerNoteLength 28
	db nD4
	hummerNoteLength 14
	db nC4
	db nD4
	db nRst
	db nE4
	db nD4
	db nC4
	hummerNoteLength 21
	db nD4
	db nE4
	hummerNoteLength 14
	db nA3
	db nRst
	hummerNoteLength 28
	db nC4
	hummerNoteLength 14
	db nC4
	hummerNoteLength 28
	db nD4
	hummerNoteLength 14
	db nC4
	db nD4
	db nRst
	db nRst
	db nRst
	db nRst
	db nRst
	db nRst
	db nRst
	db nRst
	db nRst
	hummerNoteLength 28
	db nC4
	hummerNoteLength 14
	db nC4
	hummerNoteLength 28
	db nD4
	hummerNoteLength 14
	db nC4
	db nD4
	db nRst
	db nE4
	db nD4
	db nC4
	hummerNoteLength 21
	db nD4
	db nE4
	hummerNoteLength 14
	db nA3
	db nRst
	db nE4
	db nD4
	db nC4
	db nBb3
	db nA3
	db nG3
	db nF3
	db nE3
	db nC4
	hummerDuty 18
	hummerModulate 0
	hummerADSR 17
	hummerNoteLength 7
	db nC4
	db nC4
	db nA3
	db nG3
	db nC4
	db nC4
	db nA3
	db nG3
	db nC4
	db nC4
	db nA3
	db nG3
	hummerJump -
	hummerStop

mdat.26.bin.ch1: 	; 0xdb
	hummerAlterNote 0
	hummerDuty 52
	hummerModulate 57
	hummerADSR 70
	hummerNoteLength 7
	db nC1
	db nRst
	db nC1
	db nRst
	db nC1
	db nRst
	db nC1
	hummerNoteLength 21
	db nRst
	hummerNoteLength 7
	db nC1
	db nRst
	db nC1
	db nRst
-
	hummerAlterNote 0
	hummerDuty 23
	hummerModulate 22
	hummerADSR 20
	hummerNoteLength 42
	db nE1
	hummerNoteLength 14
	db nE1
	hummerNoteLength 28
	db nG1
	db nA1
	hummerNoteLength 42
	db nB1
	hummerNoteLength 14
	db nA1
	hummerNoteLength 28
	db nG1
	db nE1
	hummerNoteLength 42
	db nE1
	hummerNoteLength 14
	db nE1
	hummerNoteLength 28
	db nG1
	db nA1
	hummerNoteLength 42
	db nB1
	hummerNoteLength 14
	db nA1
	hummerNoteLength 28
	db nG1
	db nE1
	hummerNoteLength 42
	db nF1
	hummerNoteLength 14
	db nF1
	hummerNoteLength 28
	db nA1
	db nC2
	hummerNoteLength 42
	db nE2
	hummerNoteLength 14
	db nD2
	hummerNoteLength 28
	db nC2
	db nA1
	hummerNoteLength 42
	db nF1
	hummerNoteLength 14
	db nF1
	hummerNoteLength 28
	db nA1
	db nC2
	hummerNoteLength 42
	db nE2
	hummerNoteLength 14
	db nD2
	hummerNoteLength 28
	db nC2
	db nA1
	hummerNoteLength 42
	db nC2
	hummerNoteLength 14
	db nE2
	hummerNoteLength 28
	db nG2
	db nG1
	hummerNoteLength 7
	db nC2
	db nRst
	hummerNoteLength 14
	db nC2
	db nG1
	db nA1
	db nC2
	db nC2
	db nCs2
	db nD2
	hummerAlterNote 12
	hummerDuty 18
	hummerModulate 0
	hummerADSR 17
	hummerNoteLength 56
	db nE3
	hummerNoteLength 14
	db nRst
	db nRst
	db nRst
	db nRst
	db nRst
	db nRst
	db nRst
	db nRst
	hummerNoteLength 28
	db nF3
	db nG3
	hummerNoteLength 56
	db nC3
	hummerNoteLength 14
	db nRst
	db nRst
	db nRst
	db nRst
	hummerDuty 23
	hummerModulate 22
	hummerADSR 20
	db nRst
	db nA2
	db nRst
	db nC3
	db nRst
	db nD3
	hummerNoteLength 7
	db nE3
	db nE3
	db nE3
	db nD3
	hummerDuty 18
	hummerModulate 0
	hummerADSR 17
	hummerNoteLength 56
	db nE3
	hummerNoteLength 14
	db nRst
	db nRst
	db nRst
	db nRst
	db nRst
	db nRst
	db nRst
	db nRst
	hummerNoteLength 28
	db nF3
	db nG3
	hummerNoteLength 56
	db nC3
	db nD3
	db nE3
	db nG3
	hummerJump -
	hummerStop

mdat.26.bin.ch2: 	; 0x18f
	hummerAlterNote 0
	hummerNoteLength 14
	db nRst
	db nRst
	db nRst
	db nRst
	db nRst
	db nRst
	db nRst
-
	hummerDuty 18
	hummerModulate 0
	hummerADSR 17
	hummerNoteLength 14
	db nRst
	db nRst
	db nRst
	db nRst
	db nRst
	db nRst
	hummerNoteLength 7
	db nA3
	db nG3
	hummerNoteLength 14
	db nA3
	db nRst
	db nRst
	db nRst
	db nRst
	db nRst
	db nRst
	hummerNoteLength 7
	db nG4
	db nA4
	db nB4
	db nE4
	hummerNoteLength 14
	db nRst
	db nRst
	db nRst
	db nRst
	db nRst
	db nRst
	hummerNoteLength 7
	db nA3
	db nG3
	hummerNoteLength 14
	db nA3
	db nRst
	db nRst
	db nRst
	db nRst
	db nRst
	db nRst
	hummerNoteLength 7
	db nA4
	db nF4
	db nC4
	db nF4
	hummerNoteLength 14
	db nRst
	db nRst
	db nRst
	db nRst
	db nRst
	db nRst
	hummerNoteLength 7
	db nB3
	db nA3
	hummerNoteLength 14
	db nB3
	db nRst
	db nRst
	db nRst
	db nRst
	db nRst
	db nRst
	hummerNoteLength 7
	db nC5
	db nD5
	db nE5
	db nG4
	hummerNoteLength 14
	db nRst
	db nRst
	db nRst
	db nRst
	db nRst
	db nRst
	hummerNoteLength 7
	db nB3
	db nA3
	hummerNoteLength 14
	db nB3
	db nRst
	db nRst
	db nRst
	db nRst
	db nRst
	db nRst
	hummerNoteLength 7
	db nB4
	db nG4
	db nD4
	db nB4
	hummerNoteLength 14
	db nRst
	db nRst
	db nRst
	db nRst
	db nRst
	db nRst
	db nRst
	db nRst
	db nRst
	db nRst
	db nRst
	db nRst
	db nRst
	db nRst
	db nRst
	db nRst
	hummerAlterNote 0
	hummerDuty 56
	hummerModulate 57
	hummerADSR 64
	hummerNoteLength 42
	db nE4
	hummerNoteLength 14
	db nE4
	hummerNoteLength 56
	db nD4
	hummerNoteLength 42
	db nE4
	hummerNoteLength 14
	db nD4
	hummerNoteLength 28
	db nC4
	db nD4
	hummerNoteLength 42
	db nE4
	hummerNoteLength 14
	db nE4
	hummerNoteLength 28
	db nD4
	hummerNoteLength 14
	db nC4
	db nD4
	db nE3
	db nAb3
	db nRst
	db nA3
	db nRst
	db nBb3
	db nRst
	db nB3
	hummerNoteLength 42
	db nE4
	hummerNoteLength 14
	db nE4
	hummerNoteLength 56
	db nD4
	hummerNoteLength 42
	db nE4
	hummerNoteLength 14
	db nD4
	hummerNoteLength 28
	db nC4
	db nD4
	hummerNoteLength 42
	db nE4
	hummerNoteLength 14
	db nE4
	hummerNoteLength 42
	db nC4
	hummerNoteLength 14
	db nC4
	hummerNoteLength 42
	db nE4
	hummerNoteLength 14
	db nRst
	db nRst
	db nRst
	db nRst
	db nRst
	hummerJump -
	hummerStop

mdat.26.bin.ch3: 	; 0x253
	hummerAlterNote 0
	hummerDuty 0
	hummerModulate 0
	hummerADSR 83
	hummerNoteLength 14
	db nC3
	db nC3
	db nC3
	hummerNoteLength 28
	db nC3
	hummerNoteLength 14
	db nC3
	db nC3
-
	hummerNoteLength 14
	db nC3
	db nC3
	db nC3
	db nC3
	db nC3
	db nC3
	hummerNoteLength 7
	db nC3
	db nC3
	hummerNoteLength 14
	db nC3
	hummerJump -
	hummerStop

mdat.26.bin.ch4: 	; 0x274
	hummerStop

mptr.lz: 	; 0x275
	musicChannel 0, mdat.26.bin.ch1
	musicChannel 1, mdat.26.bin.ch0
	musicChannel 2, mdat.26.bin.ch2
	musicChannel 3, mdat.26.bin.ch3
	musicChannel 4, mdat.26.bin.ch4
	hummerStop
