mdat.27.bin.ch0: 	; 0x00
-
	hummerSpeed 1
	hummerAlterNote 28
	hummerDuty 91
	hummerModulate 57
	hummerADSR 17
	hummerNoteLength 12
	db nRst
	db nRst
	hummerNoteLength 24
	db nG2
	db nA2
	db nG3
	hummerNoteLength 48
	db nE3
	hummerNoteLength 12
	db nRst
	db nRst
	db nRst
	hummerNoteLength 6
	db nE3
	db nF3
	hummerNoteLength 18
	db nG3
	db nA3
	hummerNoteLength 12
	db nBb3
	hummerNoteLength 24
	db nA3
	db nG3
	hummerNoteLength 48
	db nF3
	hummerNoteLength 12
	db nRst
	db nRst
	db nF3
	db nE3
	hummerNoteLength 48
	db nF3
	hummerNoteLength 24
	db nD3
	db nE3
	hummerNoteLength 48
	db nF3
	hummerNoteLength 12
	db nRst
	db nRst
	db nRst
	hummerNoteLength 6
	db nD3
	db nE3
	hummerNoteLength 18
	db nF3
	db nG3
	hummerNoteLength 12
	db nAb3
	hummerNoteLength 24
	db nG3
	db nF3
	hummerNoteLength 48
	db nE3
	hummerNoteLength 12
	db nRst
	db nRst
	db nF3
	db nE3
	hummerNoteLength 24
	db nD3
	db nG2
	db nA2
	db nG3
	hummerNoteLength 48
	db nE3
	hummerNoteLength 12
	db nRst
	db nRst
	db nRst
	hummerNoteLength 6
	db nE3
	db nF3
	hummerNoteLength 18
	db nG3
	db nA3
	hummerNoteLength 12
	db nBb3
	hummerNoteLength 24
	db nA3
	db nG3
	hummerNoteLength 48
	db nF3
	hummerNoteLength 12
	db nRst
	db nRst
	db nF3
	db nE3
	hummerNoteLength 48
	db nF3
	hummerNoteLength 24
	db nD3
	db nE3
	hummerNoteLength 48
	db nF3
	hummerNoteLength 12
	db nRst
	db nRst
	db nRst
	hummerNoteLength 6
	db nD3
	db nE3
	hummerNoteLength 18
	db nF3
	db nG3
	hummerNoteLength 12
	db nAb3
	hummerNoteLength 24
	db nG3
	db nF3
	hummerNoteLength 48
	db nE3
	hummerAlterNote 40
	hummerDuty 0
	hummerModulate 57
	hummerADSR 17
	hummerNoteLength 12
	db nRst
	db nE4
	hummerNoteLength 24
	db nC4
	hummerNoteLength 12
	db nRst
	db nRst
	db nRst
	db nRst
	db nRst
	db nRst
	db nRst
	db nRst
	db nRst
	db nRst
	db nRst
	db nRst
	db nRst
	db nE4
	hummerNoteLength 24
	db nC4
	hummerNoteLength 12
	db nRst
	db nRst
	db nRst
	db nRst
	db nRst
	db nRst
	db nRst
	db nRst
	db nRst
	db nRst
	db nRst
	db nRst
	db nRst
	db nE4
	hummerNoteLength 24
	db nC4
	hummerNoteLength 12
	db nRst
	db nRst
	db nRst
	db nRst
	db nRst
	db nRst
	db nRst
	db nRst
	db nRst
	db nRst
	db nRst
	db nRst
	db nRst
	db nE4
	hummerNoteLength 24
	db nC4
	hummerJump -
	hummerStop

mdat.27.bin.ch1: 	; 0xbf
	hummerNoteLength 12
	db nRst
	db nRst
	db nRst
	db nRst
	db nRst
	db nRst
	db nRst
	db nRst
-
	hummerAlterNote 4
	hummerDuty 7
	hummerModulate 5
	hummerADSR 3
	hummerNoteLength 24
	db nE3
	hummerNoteLength 18
	db nE3
	hummerNoteLength 48
	db nE3
	hummerNoteLength 6
	db nRst
	hummerNoteLength 24
	db nF3
	hummerNoteLength 18
	db nF3
	hummerNoteLength 48
	db nE3
	hummerNoteLength 6
	db nRst
	hummerNoteLength 18
	db nA3
	hummerNoteLength 12
	db nG3
	hummerNoteLength 18
	db nF3
	db nA3
	hummerNoteLength 12
	db nG3
	hummerNoteLength 18
	db nF3
	db nA3
	hummerNoteLength 12
	db nG3
	hummerNoteLength 48
	db nF3
	hummerNoteLength 18
	db nRst
	hummerNoteLength 24
	db nF3
	hummerNoteLength 18
	db nF3
	hummerNoteLength 48
	db nF3
	hummerNoteLength 6
	db nRst
	hummerNoteLength 24
	db nG3
	hummerNoteLength 18
	db nG3
	hummerNoteLength 48
	db nE3
	hummerNoteLength 6
	db nRst
	hummerNoteLength 24
	db nG3
	hummerNoteLength 18
	db nG3
	hummerNoteLength 48
	db nG3
	hummerNoteLength 6
	db nRst
	hummerNoteLength 24
	db nE3
	hummerNoteLength 18
	db nE3
	hummerNoteLength 48
	db nE3
	hummerNoteLength 6
	db nRst
	hummerNoteLength 24
	db nE3
	hummerNoteLength 18
	db nE3
	hummerNoteLength 48
	db nE3
	hummerNoteLength 6
	db nRst
	hummerNoteLength 24
	db nF3
	hummerNoteLength 18
	db nF3
	hummerNoteLength 48
	db nE3
	hummerNoteLength 6
	db nRst
	hummerNoteLength 18
	db nA3
	hummerNoteLength 12
	db nG3
	hummerNoteLength 18
	db nF3
	db nA3
	hummerNoteLength 12
	db nG3
	hummerNoteLength 18
	db nF3
	db nA3
	hummerNoteLength 12
	db nG3
	hummerNoteLength 48
	db nF3
	hummerNoteLength 18
	db nRst
	hummerNoteLength 24
	db nF3
	hummerNoteLength 18
	db nF3
	hummerNoteLength 48
	db nF3
	hummerNoteLength 6
	db nRst
	hummerNoteLength 24
	db nG3
	hummerNoteLength 18
	db nG3
	hummerNoteLength 48
	db nE3
	hummerNoteLength 6
	db nRst
	hummerDuty 18
	hummerModulate 0
	hummerADSR 17
	hummerNoteLength 12
	db nRst
	hummerNoteLength 6
	db nG3
	db nA3
	db nC4
	db nC4
	hummerNoteLength 12
	db nA3
	db nC4
	db nE4
	hummerNoteLength 24
	db nC4
	db nE4
	hummerNoteLength 36
	db nC4
	hummerNoteLength 6
	db nA3
	db nA3
	hummerNoteLength 12
	db nC4
	db nA3
	db nRst
	hummerNoteLength 6
	db nG3
	db nA3
	db nC4
	db nC4
	hummerNoteLength 12
	db nA3
	db nC4
	db nE4
	hummerNoteLength 24
	db nC4
	hummerNoteLength 12
	db nRst
	db nE4
	db nF4
	db nE4
	db nF4
	hummerNoteLength 36
	db nG4
	hummerNoteLength 12
	db nC4
	hummerNoteLength 6
	db nG3
	db nA3
	db nC4
	db nC4
	hummerNoteLength 12
	db nA3
	db nC4
	db nE4
	hummerNoteLength 24
	db nC4
	db nE4
	hummerNoteLength 36
	db nC4
	hummerNoteLength 6
	db nA3
	db nA3
	hummerNoteLength 12
	db nC4
	db nA3
	db nRst
	hummerNoteLength 6
	db nG3
	db nA3
	db nC4
	db nC4
	hummerNoteLength 12
	db nA3
	db nC4
	db nE4
	hummerNoteLength 24
	db nC4
	hummerNoteLength 12
	db nRst
	hummerNoteLength 6
	db nE4
	db nF4
	hummerNoteLength 24
	db nG4
	hummerDuty 7
	hummerModulate 5
	hummerADSR 2
	hummerNoteLength 48
	db nC5
	hummerJump -
	hummerStop

mdat.27.bin.ch2: 	; 0x1a9
	hummerNoteLength 12
	db nRst
	db nRst
	db nRst
	db nRst
	db nRst
	db nRst
	db nRst
	db nRst
-
	hummerAlterNote 4
	hummerDuty 56
	hummerModulate 57
	hummerADSR 64
	hummerNoteLength 24
	db nC3
	hummerNoteLength 18
	db nC3
	hummerNoteLength 48
	db nC3
	hummerNoteLength 6
	db nRst
	hummerNoteLength 24
	db nB2
	hummerNoteLength 18
	db nB2
	hummerNoteLength 24
	db nB2
	hummerNoteLength 6
	db nRst
	hummerNoteLength 12
	db nRst
	hummerNoteLength 3
	db nC3
	db nRst
	db nC3
	db nRst
	hummerNoteLength 12
	db nD3
	db nD3
	db nRst
	hummerNoteLength 3
	db nC3
	db nRst
	db nC3
	db nRst
	hummerNoteLength 12
	db nCs3
	db nCs3
	db nRst
	hummerNoteLength 3
	db nC3
	db nRst
	db nC3
	db nRst
	hummerNoteLength 12
	db nC3
	db nC3
	db nRst
	hummerNoteLength 3
	db nC3
	db nRst
	db nC3
	db nRst
	hummerNoteLength 12
	db nB2
	db nB2
	db nRst
	db nRst
	hummerNoteLength 24
	db nF3
	hummerNoteLength 18
	db nF3
	hummerNoteLength 48
	db nF3
	hummerNoteLength 6
	db nRst
	hummerNoteLength 24
	db nE3
	hummerNoteLength 18
	db nE3
	hummerNoteLength 48
	db nE3
	hummerNoteLength 6
	db nRst
	hummerNoteLength 24
	db nD3
	hummerNoteLength 18
	db nD3
	hummerNoteLength 48
	db nD3
	hummerNoteLength 6
	db nRst
	hummerNoteLength 24
	db nG3
	hummerNoteLength 18
	db nG3
	hummerNoteLength 48
	db nG3
	hummerNoteLength 6
	db nRst
	hummerNoteLength 24
	db nC3
	hummerNoteLength 18
	db nC3
	hummerNoteLength 48
	db nC3
	hummerNoteLength 6
	db nRst
	hummerNoteLength 24
	db nB2
	hummerNoteLength 18
	db nB2
	hummerNoteLength 24
	db nB2
	hummerNoteLength 6
	db nRst
	hummerNoteLength 12
	db nRst
	hummerNoteLength 3
	db nC3
	db nRst
	db nC3
	db nRst
	hummerNoteLength 12
	db nD3
	db nD3
	db nRst
	hummerNoteLength 3
	db nC3
	db nRst
	db nC3
	db nRst
	hummerNoteLength 12
	db nCs3
	db nCs3
	db nRst
	hummerNoteLength 3
	db nC3
	db nRst
	db nC3
	db nRst
	hummerNoteLength 12
	db nC3
	db nC3
	db nRst
	hummerNoteLength 3
	db nC3
	db nRst
	db nC3
	db nRst
	hummerNoteLength 12
	db nB2
	db nB2
	db nRst
	db nRst
	hummerNoteLength 24
	db nF3
	hummerNoteLength 18
	db nF3
	hummerNoteLength 48
	db nF3
	hummerNoteLength 6
	db nRst
	hummerNoteLength 24
	db nE3
	hummerNoteLength 18
	db nE3
	hummerNoteLength 36
	db nE3
	hummerNoteLength 6
	db nRst
	db nG2
	db nA2
	hummerNoteLength 24
	db nC3
	hummerNoteLength 18
	db nC3
	hummerNoteLength 36
	db nC3
	hummerNoteLength 6
	db nRst
	db nA2
	db nC3
	hummerNoteLength 24
	db nD3
	hummerNoteLength 18
	db nD3
	hummerNoteLength 36
	db nD3
	hummerNoteLength 6
	db nRst
	db nC3
	db nD3
	hummerNoteLength 24
	db nE3
	hummerNoteLength 18
	db nE3
	hummerNoteLength 36
	db nE3
	hummerNoteLength 6
	db nRst
	db nD3
	db nE3
	hummerNoteLength 24
	db nF3
	hummerNoteLength 18
	db nF3
	hummerNoteLength 36
	db nF3
	hummerNoteLength 6
	db nRst
	db nG2
	db nA2
	hummerNoteLength 24
	db nC3
	hummerNoteLength 18
	db nC3
	hummerNoteLength 36
	db nC3
	hummerNoteLength 6
	db nRst
	db nA2
	db nC3
	hummerNoteLength 24
	db nD3
	hummerNoteLength 18
	db nD3
	hummerNoteLength 36
	db nD3
	hummerNoteLength 6
	db nRst
	db nC3
	db nD3
	hummerNoteLength 24
	db nE3
	hummerNoteLength 18
	db nE3
	hummerNoteLength 36
	db nE3
	hummerNoteLength 6
	db nRst
	db nD3
	db nE3
	hummerNoteLength 48
	db nF3
	hummerNoteLength 12
	db nRst
	db nRst
	db nRst
	db nRst
	hummerJump -
	hummerStop

mdat.27.bin.ch3: 	; 0x2ab
-
	hummerAlterNote 0
	hummerDuty 0
	hummerModulate 0
	hummerADSR 83
	hummerNoteLength 12
	db nA2
	db nRst
	hummerJump -
	hummerStop

mdat.27.bin.ch4: 	; 0x2ba
	hummerStop

mptr.slz: 	; 0x2bb
	musicChannel 0, mdat.27.bin.ch1
	musicChannel 1, mdat.27.bin.ch0
	musicChannel 2, mdat.27.bin.ch2
	musicChannel 3, mdat.27.bin.ch3
	musicChannel 4, mdat.27.bin.ch4
	hummerStop
