mdat.28.bin.ch0: 	; 0x0
-
	hummerSpeed 1
	hummerAlterNote 26
	hummerDuty 7
	hummerModulate 5
	hummerADSR 2
	hummerNoteLength 56
	db nG3
	hummerNoteLength 14
	db nRst
	db nE3
	db nG3
	db nA3
	db nC3
	db nC3
	hummerNoteLength 28
	db nC3
	hummerNoteLength 14
	db nC3
	hummerNoteLength 7
	db nC3
	db nA2
	hummerNoteLength 14
	db nC3
	db nD3
	hummerNoteLength 56
	db nG3
	hummerNoteLength 14
	db nRst
	db nE3
	db nG3
	db nA3
	hummerNoteLength 28
	db nC4
	hummerNoteLength 21
	db nA3
	hummerNoteLength 7
	db nE3
	hummerNoteLength 14
	db nG3
	hummerNoteLength 42
	db nA3
	hummerNoteLength 56
	db nG3
	hummerNoteLength 14
	db nRst
	db nE3
	db nG3
	db nA3
	db nC3
	db nC3
	hummerNoteLength 28
	db nC3
	hummerNoteLength 14
	db nC3
	hummerNoteLength 7
	db nC3
	db nA2
	hummerNoteLength 14
	db nC3
	db nD3
	hummerNoteLength 56
	db nG3
	hummerNoteLength 14
	db nRst
	db nE3
	db nG3
	db nA3
	hummerNoteLength 28
	db nC4
	db nA3
	hummerNoteLength 14
	db nEb4
	hummerNoteLength 7
	db nEb4
	db nD4
	hummerNoteLength 14
	db nC4
	db nA3
	db nRst
	db nE3
	db nF3
	db nE3
	db nAb3
	db nAb3
	db nA3
	db nB3
	db nC4
	db nRst
	db nB3
	db nRst
	db nA3
	hummerNoteLength 7
	db nA3
	db nB3
	hummerNoteLength 14
	db nA3
	db nE3
	db nRst
	db nD3
	db nE3
	db nD3
	db nA3
	db nA3
	db nB3
	db nA3
	hummerNoteLength 56
	db nG3
	hummerNoteLength 14
	db nRst
	db nRst
	db nRst
	db nRst
	hummerAlterNote 14
	hummerDuty 7
	hummerModulate 5
	hummerADSR 2
	db nC4
	db nC4
	db nC4
	db nRst
	hummerAlterNote 26
	hummerDuty 0
	hummerModulate 57
	hummerADSR 17
	db nC5
	hummerNoteLength 7
	db nC5
	db nC5
	hummerNoteLength 14
	db nC5
	db nC5
	hummerAlterNote 14
	hummerDuty 7
	hummerModulate 5
	hummerADSR 2
	db nC4
	db nC4
	db nC4
	db nRst
	hummerAlterNote 26
	hummerDuty 0
	hummerModulate 57
	hummerADSR 17
	db nRst
	hummerNoteLength 7
	db nC5
	db nC5
	hummerNoteLength 14
	db nC5
	db nC5
	hummerAlterNote 14
	hummerDuty 7
	hummerModulate 5
	hummerADSR 2
	db nC4
	db nC4
	db nC4
	db nRst
	hummerAlterNote 26
	hummerDuty 0
	hummerModulate 57
	hummerADSR 17
	db nC5
	hummerNoteLength 7
	db nC5
	db nC5
	hummerNoteLength 14
	db nC5
	db nC5
	hummerAlterNote 14
	hummerDuty 7
	hummerModulate 5
	hummerADSR 2
	db nC4
	db nC4
	db nC4
	db nRst
	hummerNoteLength 7
	db nRst
	db nEb1
	db nRst
	db nE1
	db nRst
	db nF1
	db nRst
	db nFs1
	hummerJump -
	hummerStop

mdat.28.bin.ch1: 	; 0xdf
-
	hummerAlterNote 2
	hummerDuty 56
	hummerModulate 57
	hummerADSR 64
	hummerCall +
	hummerCall +
	hummerCall +
	hummerCall +
	hummerAlterNote 14
	hummerNoteLength 7
	db nE2
	db nB2
	db nE3
	db nAb3
	db nE2
	db nB2
	db nE3
	db nAb3
	db nE2
	db nB2
	db nE3
	db nAb3
	db nE2
	db nB2
	db nE3
	db nAb3
	db nA2
	db nA3
	db nC3
	db nE3
	db nA2
	db nA3
	db nC3
	db nE3
	db nA2
	db nA3
	db nC3
	db nE3
	db nA2
	db nA3
	db nC3
	db nE3
	db nD2
	db nA3
	db nD3
	db nF3
	db nD2
	db nA3
	db nD3
	db nF3
	db nD2
	db nA3
	db nD3
	db nF3
	db nD2
	db nA3
	db nD3
	db nF3
	db nG2
	db nG3
	db nG2
	db nG3
	db nG2
	db nG3
	db nG2
	db nG3
	db nG2
	db nG3
	db nAb2
	db nAb3
	db nA2
	db nA3
	db nBb2
	db nBb3
	hummerAlterNote 2
	hummerCall ++
	hummerNoteLength 14
	db nC4
	hummerNoteLength 7
	db nF3
	db nA3
	hummerNoteLength 14
	db nF3
	db nF4
	hummerCall ++
	hummerNoteLength 7
	db nEb3
	db nRst
	db nE3
	db nRst
	db nF3
	db nRst
	db nFs3
	db nRst
	hummerJump -
	hummerStop

+
	hummerNoteLength 14
	db nG3
	db nE3
	db nG3
	db nE3
	db nG3
	hummerNoteLength 7
	db nG3
	db nE3
	hummerNoteLength 14
	db nG3
	db nA3
	db nC4
	db nA3
	db nC4
	db nA3
	db nC4
	hummerNoteLength 7
	db nC4
	db nA3
	hummerNoteLength 14
	db nC4
	db nF4
	hummerReturn
	hummerStop

++
	hummerNoteLength 7
	db nC4
	db nG3
	db nE3
	db nG3
	db nC4
	db nG3
	db nE3
	db nG3
	hummerNoteLength 14
	db nG3
	hummerNoteLength 7
	db nE3
	db nG3
	hummerNoteLength 14
	db nE3
	db nC4
	hummerNoteLength 7
	db nC4
	db nA3
	db nF3
	db nA3
	db nC4
	db nA3
	db nF3
	db nA3
	hummerReturn
	hummerStop

mdat.28.bin.ch2: 	; 0x188
	hummerStop

mptr.special: 	; 0x189
	musicChannel 0, mdat.28.bin.ch1
	musicChannel 1, mdat.28.bin.ch0
	musicChannel 2, mdat.28.bin.ch1
	musicChannel 3, mdat.28.bin.ch2
	musicChannel 4, mdat.28.bin.ch2
	hummerStop
