mdat.29.bin.ch0: 	; 0x0
-
	hummerSpeed 1
	hummerAlterNote 2
	hummerDuty 66
	hummerModulate 67
	hummerADSR 65
	hummerNoteLength 16
	db nE1
	db nE2
	db nE1
	db nE2
	db nE1
	db nE2
	db nE1
	db nE2
	hummerAlterNote 2
	hummerDuty 23
	hummerModulate 22
	hummerADSR 21
	db nA3
	db nE3
	db nC4
	db nE3
	db nA3
	db nE3
	db nA3
	db nB3
	hummerNoteLength 48
	db nC4
	hummerNoteLength 16
	db nE3
	db nA3
	db nE3
	db nA3
	db nE3
	db nA3
	db nE3
	db nF3
	db nA3
	db nF3
	hummerNoteLength 48
	db nD3
	hummerNoteLength 16
	db nA3
	db nE3
	db nF3
	db nC4
	db nB3
	hummerNoteLength 48
	db nG3
	hummerNoteLength 16
	db nA3
	db nE3
	db nC4
	db nE3
	db nA3
	db nE3
	db nA3
	db nB3
	hummerNoteLength 48
	db nC4
	hummerNoteLength 16
	db nE3
	db nA3
	db nE3
	db nA3
	db nE3
	db nA3
	db nE3
	db nF3
	db nA3
	db nF3
	hummerNoteLength 48
	db nD3
	hummerNoteLength 16
	db nD4
	hummerNoteLength 48
	db nD4
	hummerNoteLength 16
	db nEb4
	hummerNoteLength 48
	db nEb4
	hummerNoteLength 16
	db nE4
	hummerNoteLength 64
	db nE4
	hummerNoteLength 16
	db nRst
	db nRst
	db nRst
	hummerJump -
	hummerStop

mdat.29.bin.ch1: 	; 0x66
-
	hummerAlterNote 14
	hummerDuty 0
	hummerModulate 57
	hummerADSR 17
	hummerNoteLength 32
	db nE3
	db nE3
	db nE3
	db nE3
	hummerNoteLength 16
	db nA3
	hummerNoteLength 8
	db nG3
	db nBb3
	hummerNoteLength 64
	db nA3
	hummerNoteLength 16
	db nRst
	db nRst
	db nRst
	db nRst
	hummerNoteLength 32
	db nE3
	db nA3
	db nB3
	hummerNoteLength 64
	db nC4
	hummerNoteLength 16
	db nRst
	db nRst
	db nRst
	db nRst
	hummerNoteLength 64
	db nD4
	hummerNoteLength 16
	db nRst
	db nRst
	db nRst
	db nRst
	db nA3
	hummerNoteLength 8
	db nG3
	db nBb3
	hummerNoteLength 64
	db nA3
	hummerNoteLength 16
	db nRst
	db nRst
	db nRst
	db nRst
	hummerNoteLength 32
	db nE3
	db nA3
	db nB3
	hummerNoteLength 64
	db nC4
	hummerNoteLength 16
	db nRst
	db nRst
	db nRst
	db nRst
	hummerNoteLength 64
	db nD4
	db nEb4
	db nE4
	hummerNoteLength 16
	db nRst
	db nRst
	db nRst
	db nRst
	hummerJump -
	hummerStop

mdat.29.bin.ch2: 	; 0xb4
-
	hummerAlterNote 2
	hummerDuty 56
	hummerModulate 57
	hummerADSR 64
	hummerNoteLength 16
	db nE2
	db nE3
	db nE2
	db nE3
	db nE2
	db nE3
	db nE2
	db nE3
	db nA3
	db nE3
	db nA3
	db nB3
	db nC4
	db nC4
	db nB3
	db nB3
	db nA3
	db nE3
	db nD3
	db nE3
	hummerNoteLength 32
	db nA3
	db nG3
	hummerNoteLength 16
	db nF3
	hummerNoteLength 32
	db nF3
	hummerNoteLength 16
	db nE3
	hummerNoteLength 32
	db nF3
	db nE3
	hummerNoteLength 16
	db nD3
	hummerNoteLength 32
	db nD3
	hummerNoteLength 16
	db nD3
	db nEb3
	hummerNoteLength 32
	db nEb3
	hummerNoteLength 16
	db nEb3
	db nA3
	db nE3
	db nA3
	db nB3
	db nC4
	db nC4
	db nB3
	db nB3
	db nA3
	db nE3
	db nD3
	db nE3
	hummerNoteLength 32
	db nA3
	db nG3
	hummerNoteLength 16
	db nF3
	hummerNoteLength 32
	db nF3
	hummerNoteLength 16
	db nE3
	hummerNoteLength 32
	db nF3
	db nE3
	hummerNoteLength 16
	db nD3
	hummerNoteLength 32
	db nD3
	hummerNoteLength 16
	db nD3
	db nEb3
	hummerNoteLength 32
	db nEb3
	hummerNoteLength 16
	db nEb3
	db nB3
	db nA3
	db nB3
	db nA3
	db nB3
	db nA3
	db nB3
	db nA3
	hummerJump -
	hummerStop

mdat.29.bin.ch3: 	; 0x117
-
	hummerAlterNote 0
	hummerDuty 0
	hummerModulate 0
	hummerADSR 83
	hummerNoteLength 16
	db nC3
	db nRst
	db nC3
	db nRst
	db nC3
	db nRst
	db nC3
	db nRst
	db nC3
	db nC3
	hummerNoteLength 8
	db nF3
	db nF3
	db nF3
	db nC3
	hummerNoteLength 16
	db nC3
	db nC3
	db nC3
	db nC3
	db nC3
	db nRst
	db nRst
	db nRst
	db nC3
	db nC3
	db nC3
	db nRst
	db nC3
	db nC3
	hummerNoteLength 8
	db nF3
	db nF3
	hummerNoteLength 16
	db nF3
	db nC3
	db nC3
	db nRst
	db nRst
	db nC3
	db nC3
	db nC3
	db nRst
	db nC3
	db nC3
	db nC3
	db nRst
	db nC3
	db nC3
	hummerNoteLength 8
	db nF3
	db nF3
	db nF3
	db nC3
	hummerNoteLength 16
	db nC3
	db nC3
	db nC3
	db nC3
	db nC3
	db nRst
	db nRst
	db nRst
	db nC3
	db nC3
	db nC3
	db nRst
	db nC3
	db nC3
	hummerNoteLength 8
	db nF3
	db nF3
	hummerNoteLength 16
	db nF3
	db nC3
	db nC3
	db nRst
	db nRst
	db nC3
	db nC3
	db nC3
	db nRst
	db nC3
	db nC3
	db nC3
	db nRst
	db nC3
	db nC3
	db nC3
	db nF3
	db nC3
	db nF3
	db nC3
	db nF3
	hummerJump -
	hummerStop

mdat.29.bin.ch4: 	; 0x182
	hummerStop

mptr.robotnik: 	; 0x183
	musicChannel 0, mdat.29.bin.ch1
	musicChannel 1, mdat.29.bin.ch0
	musicChannel 2, mdat.29.bin.ch2
	musicChannel 3, mdat.29.bin.ch3
	musicChannel 4, mdat.29.bin.ch4
	hummerStop
