mdat.2A.ch0: 	; 0x0
	hummerSpeed 2
	hummerAlterNote 17
	hummerDuty 18
	hummerModulate 0
	hummerADSR 17
	hummerNoteLength 7
	db nG2
	db nG3
	db nG2
	db nG3
	db nAb2
	db nAb3
	db nAb2
	db nAb3
	db nG2
	db nG3
	db nG2
	db nG3
	db nAb2
	db nAb3
	db nAb2
	db nAb3
	hummerNoteLength 5
	db nG2
	db nG3
	db nG2
	db nG3
	db nAb2
	db nAb3
	db nAb2
	db nAb3
	db nG2
	db nG3
	db nG2
	db nG3
	db nAb2
	db nAb3
	db nAb2
	db nAb3
	hummerAlterNote 29
	hummerNoteLength 4
	db nG2
	db nG3
	db nG2
	db nG3
	db nAb2
	db nAb3
	db nAb2
	db nAb3
	db nG2
	db nG3
	db nG2
	db nG3
	db nAb2
	db nAb3
	db nAb2
	db nAb3
	hummerNoteLength 3
	db nG2
	db nG3
	db nG2
	db nG3
	db nAb2
	db nAb3
	db nAb2
	db nAb3
	db nG2
	db nG3
	db nG2
	db nG3
	db nAb2
	db nAb3
	db nAb2
	db nAb3
	hummerNoteLength 2
	db nG2
	db nG3
	db nG2
	db nG3
	db nAb2
	db nAb3
	db nAb2
	db nAb3
	db nG2
	db nG3
	db nG2
	db nG3
	db nAb2
	db nAb3
	db nAb2
	db nAb3
	hummerNoteLength 4
	db nG2
	hummerStop

mdat.2A.ch1: 	; 0x64
	hummerAlterNote 9
	hummerDuty 18
	hummerModulate 0
	hummerADSR 17
	hummerNoteLength 7
	db nG2
	db nG3
	db nG2
	db nG3
	db nAb2
	db nAb3
	db nAb2
	db nAb3
	db nG2
	db nG3
	db nG2
	db nG3
	db nAb2
	db nAb3
	db nAb2
	db nAb3
	hummerNoteLength 5
	db nG2
	db nG3
	db nG2
	db nG3
	db nAb2
	db nAb3
	db nAb2
	db nAb3
	db nG2
	db nG3
	db nG2
	db nG3
	db nAb2
	db nAb3
	db nAb2
	db nAb3
	hummerNoteLength 4
	db nG2
	db nG3
	db nG2
	db nG3
	db nAb2
	db nAb3
	db nAb2
	db nAb3
	db nG2
	db nG3
	db nG2
	db nG3
	db nAb2
	db nAb3
	db nAb2
	db nAb3
	hummerNoteLength 3
	db nG2
	db nG3
	db nG2
	db nG3
	db nAb2
	db nAb3
	db nAb2
	db nAb3
	db nG2
	db nG3
	db nG2
	db nG3
	db nAb2
	db nAb3
	db nAb2
	db nAb3
	hummerNoteLength 2
	db nG2
	db nG3
	db nG2
	db nG3
	db nAb2
	db nAb3
	db nAb2
	db nAb3
	db nG2
	db nG3
	db nG2
	db nG3
	db nAb2
	db nAb3
	db nAb2
	db nAb3
	hummerNoteLength 4
	db nG2
	hummerStop

mdat.2A.ch2: 	; 0xc4
	hummerAlterNote 5
	hummerDuty 7
	hummerModulate 5
	hummerADSR 6
	hummerNoteLength 7
	db nG3
	db nRst
	db nG3
	db nRst
	db nAb3
	db nRst
	db nAb3
	db nRst
	db nG3
	db nRst
	db nG3
	db nRst
	db nAb3
	db nRst
	db nAb3
	db nRst
	hummerNoteLength 5
	db nG3
	db nRst
	db nG3
	db nRst
	db nAb3
	db nRst
	db nAb3
	db nRst
	db nG3
	db nRst
	db nG3
	db nRst
	db nAb3
	db nRst
	db nAb3
	db nRst
	hummerNoteLength 4
	db nG3
	db nRst
	db nG3
	db nRst
	db nAb3
	db nRst
	db nAb3
	db nRst
	db nG3
	db nRst
	db nG3
	db nRst
	db nAb3
	db nRst
	db nAb3
	db nRst
	hummerNoteLength 3
	db nG3
	db nRst
	db nG3
	db nRst
	db nAb3
	db nRst
	db nAb3
	db nRst
	db nG3
	db nRst
	db nG3
	db nRst
	db nAb3
	db nRst
	db nAb3
	db nRst
	hummerNoteLength 2
	db nG3
	db nRst
	db nG3
	db nRst
	db nAb3
	db nRst
	db nAb3
	db nRst
	db nG3
	db nRst
	db nG3
	db nRst
	db nAb3
	db nRst
	db nAb3
	db nRst
	hummerNoteLength 4
	db nG3
	hummerStop

mdat.2A.ch3: 	; 0x124
	hummerStop

mptr.countdown: 	; 0x125
	musicChannel 0, mdat.2A.ch0
	musicChannel 1, mdat.2A.ch1
	musicChannel 2, mdat.2A.ch2
	musicChannel 3, mdat.2A.ch3
	musicChannel 4, mdat.2A.ch3
	hummerStop
